<svg xmlns="http://www.w3.org/2000/svg" viewBox="0 0 180 180">
  <rect width="180" height="180" rx="24" fill="#5B8731"/>
  <rect y="90" width="180" height="90" fill="#8B5E3C"/>
  <rect x="0" y="156" width="180" height="24" rx="0" fill="#6B4226"/>
  <!-- Pixel CW -->
  <rect x="28" y="40" width="16" height="16" fill="#FFF"/>
  <rect x="44" y="40" width="16" height="16" fill="#FFF"/>
  <rect x="60" y="40" width="16" height="16" fill="#FFF"/>
  <rect x="28" y="56" width="16" height="16" fill="#FFF"/>
  <rect x="28" y="72" width="16" height="16" fill="#FFF"/>
  <rect x="28" y="88" width="16" height="16" fill="#FFF"/>
  <rect x="44" y="88" width="16" height="16" fill="#FFF"/>
  <rect x="60" y="88" width="16" height="16" fill="#FFF"/>
  <rect x="92" y="40" width="16" height="16" fill="#FFF"/>
  <rect x="92" y="56" width="16" height="16" fill="#FFF"/>
  <rect x="92" y="72" width="16" height="16" fill="#FFF"/>
  <rect x="92" y="88" width="16" height="16" fill="#FFF"/>
  <rect x="108" y="88" width="16" height="16" fill="#FFF"/>
  <rect x="124" y="72" width="16" height="16" fill="#FFF"/>
  <rect x="140" y="88" width="16" height="16" fill="#FFF"/>
  <rect x="156" y="40" width="16" height="16" fill="#FFF"/>
  <rect x="156" y="56" width="16" height="16" fill="#FFF"/>
  <rect x="156" y="72" width="16" height="16" fill="#FFF"/>
  <rect x="156" y="88" width="16" height="16" fill="#FFF"/>
  <!-- Bottom label -->
  <rect x="24" y="116" width="132" height="28" rx="6" fill="rgba(0,0,0,0.3)"/>
  <text x="90" y="136" text-anchor="middle" font-family="monospace" font-size="16" font-weight="bold" fill="#F5A623">ENGLISH</text>
</svg>
